<svg width="81" height="40" viewBox="0 0 81 40" fill="none" xmlns="http://www.w3.org/2000/svg">
<g clip-path="url(#clip0_511_584)">
<path d="M7.47209 0C8.44058 0 9.33512 0.238438 10.1569 0.714139C10.9786 1.18984 11.6231 1.83468 12.0903 2.64866C12.5576 3.46263 12.7912 4.35296 12.7912 5.32198C12.7912 6.79254 12.2723 8.04816 11.2345 9.08648C10.1968 10.1248 8.94185 10.644 7.47209 10.644H3.1391V18.1718H0V0H7.47209ZM7.47209 7.50198C8.07784 7.50198 8.59202 7.29056 9.01581 6.86654C9.4396 6.44252 9.65091 5.92806 9.65091 5.32198C9.65091 4.7159 9.43843 4.20144 9.01581 3.77742C8.59202 3.3534 8.07784 3.14198 7.47209 3.14198H3.1391V7.50198H7.47209Z" fill="#262626"/>
<path d="M25.4778 0H28.6169V18.1718H25.4778V10.6698H17.8754V18.1718H14.7363V0H17.8754V7.50198H25.4778V0Z" fill="#262626"/>
<path d="M35.0913 1.22038C36.4836 0.407576 38.0015 0 39.645 0C41.2885 0 42.8064 0.406401 44.1987 1.22038C45.591 2.03436 46.6933 3.13728 47.5069 4.53032C48.3192 5.92336 48.7266 7.44208 48.7266 9.08648C48.7266 10.7309 48.3204 12.2496 47.5069 13.6426C46.6933 15.0357 45.591 16.1398 44.1987 16.9526C42.8064 17.7666 41.2885 18.173 39.645 18.173C38.0015 18.173 36.4836 17.7666 35.0913 16.9526C33.6991 16.1398 32.5956 15.0357 31.7832 13.6426C30.9697 12.2496 30.5635 10.7309 30.5635 9.08648C30.5635 7.44208 30.9697 5.92336 31.7832 4.53032C32.5956 3.13728 33.6991 2.03436 35.0913 1.22038ZM35.4412 13.2914C36.5998 14.4507 38.0003 15.031 39.6439 15.031C41.2874 15.031 42.6879 14.4519 43.8465 13.2914C45.0052 12.1321 45.5851 10.7309 45.5851 9.08648C45.5851 7.44208 45.0052 6.04082 43.8465 4.88152C42.6879 3.72221 41.2862 3.14198 39.6439 3.14198C38.0015 3.14198 36.5998 3.72221 35.4412 4.88152C34.2825 6.04082 33.7026 7.44325 33.7026 9.08648C33.7026 10.7297 34.2813 12.1321 35.4412 13.2914Z" fill="#262626"/>
<path d="M49.3745 0H62.1657V3.1408H57.3397V18.1718H54.2006V3.1408H49.3745V0Z" fill="#262626"/>
<path d="M67.3416 1.22038C68.7339 0.407576 70.2518 0 71.8953 0C73.5388 0 75.0567 0.406401 76.449 1.22038C77.8412 2.03436 78.9436 3.13728 79.7571 4.53032C80.5695 5.92336 80.9768 7.44208 80.9768 9.08648C80.9768 10.7309 80.5706 12.2496 79.7571 13.6426C78.9436 15.0357 77.8412 16.1398 76.449 16.9526C75.0567 17.7666 73.5388 18.173 71.8953 18.173C70.2518 18.173 68.7339 17.7666 67.3416 16.9526C65.9493 16.1398 64.8458 15.0357 64.0334 13.6426C63.2199 12.2496 62.8137 10.7309 62.8137 9.08648C62.8137 7.44208 63.2199 5.92336 64.0334 4.53032C64.8458 3.13728 65.9493 2.03436 67.3416 1.22038ZM67.6914 13.2914C68.8501 14.4507 70.2506 15.031 71.8941 15.031C73.5376 15.031 74.9381 14.4519 76.0968 13.2914C77.2555 12.1321 77.8354 10.7309 77.8354 9.08648C77.8354 7.44208 77.2555 6.04082 76.0968 4.88152C74.9381 3.72221 73.5364 3.14198 71.8941 3.14198C70.2518 3.14198 68.8501 3.72221 67.6914 4.88152C66.5327 6.04082 65.9528 7.44325 65.9528 9.08648C65.9528 10.7297 66.5316 12.1321 67.6914 13.2914Z" fill="#262626"/>
<path d="M20.3549 21.1225C21.9913 20.9792 23.5398 21.2517 24.9978 21.9412C26.4558 22.6306 27.6497 23.6337 28.5818 24.9504C29.5127 26.2671 30.0504 27.7447 30.1936 29.3821C30.3368 31.0206 30.0645 32.5687 29.3754 34.0263C28.6863 35.4851 27.6838 36.6808 26.3678 37.6123C25.0518 38.5449 23.575 39.0817 21.9385 39.225L16.5361 39.6983L14.9536 21.5958L20.3561 21.1225H20.3549ZM21.6638 36.0959C23.3003 35.9526 24.6409 35.2537 25.6869 33.9981C26.7317 32.7425 27.1872 31.2954 27.0522 29.6569C26.9172 28.0184 26.2222 26.6723 24.9673 25.6176C23.7112 24.564 22.2649 24.1082 20.6284 24.2515L18.3545 24.4512L19.3899 36.2956L21.6638 36.0959Z" fill="#262626"/>
<path d="M45.3889 27.1984C45.2997 28.2156 44.9511 29.1235 44.3441 29.9211C43.736 30.7198 42.973 31.3035 42.055 31.6747L44.2702 39.9989L40.9362 39.7076L38.876 31.9965L35.3096 31.6841L34.6557 39.1579L31.5283 38.8842L33.1108 20.7817L40.5547 21.4336C42.0186 21.5617 43.223 22.1889 44.1669 23.3129C45.1107 24.4382 45.5181 25.7337 45.3901 27.1984H45.3889ZM39.9008 28.9074C40.5042 28.9603 41.0348 28.7947 41.4938 28.4082C41.9528 28.023 42.2088 27.5332 42.2604 26.9377C42.3121 26.3433 42.1465 25.8113 41.7615 25.3438C41.3764 24.8763 40.8834 24.6155 40.28 24.5627L35.9634 24.1845L35.5831 28.5292L39.8996 28.9074H39.9008Z" fill="#262626"/>
<path d="M51.0427 35.6577L47.9717 38.4015L62.613 39.2437L59.8648 36.1651L51.0427 35.6577Z" fill="#262626"/>
<path d="M50.5062 25.6821L47.7651 22.6118L46.9233 37.2599L49.999 34.5114L50.5062 25.6821Z" fill="#262626"/>
<path d="M60.4718 25.1512L63.5404 22.4086L48.9109 21.5664L51.6579 24.6438L60.4718 25.1512Z" fill="#262626"/>
<path d="M61.5154 26.2988L61.0083 35.1186L63.7494 38.189L64.5912 23.5503L61.5154 26.2988Z" fill="#262626"/>
<path d="M73.5763 20.9979C74.5366 20.8711 75.4546 20.9909 76.3315 21.355C77.2084 21.7203 77.9316 22.2747 78.4998 23.0206C79.0691 23.7664 79.4166 24.6191 79.5434 25.5799C79.7347 27.0388 79.3849 28.3496 78.4915 29.5148C77.5982 30.6799 76.4219 31.3588 74.965 31.5503L70.6696 32.1164L71.6522 39.5808L68.5401 39.9907L66.1699 21.9752L73.5786 20.9991L73.5763 20.9979ZM74.5553 28.4365C75.1552 28.3578 75.6377 28.0806 76.0028 27.6049C76.3679 27.1292 76.5111 26.5912 76.4313 25.991C76.3526 25.3908 76.0744 24.9081 75.599 24.5428C75.1235 24.1775 74.5859 24.0354 73.986 24.1141L69.6906 24.6802L70.2599 29.0038L74.5553 28.4377V28.4365Z" fill="#262626"/>
</g>
<defs>
<clipPath id="clip0_511_584">
<rect width="80.9756" height="40" fill="white"/>
</clipPath>
</defs>
</svg>
